<?xml version="1.0" encoding="UTF-8"?>
<!DOCTYPE svg PUBLIC "-//W3C//DTD SVG 1.1//EN" "http://www.w3.org/Graphics/SVG/1.1/DTD/svg11.dtd">
<!-- Creator: CorelDRAW 2017 -->
<svg xmlns="http://www.w3.org/2000/svg" xml:space="preserve" width="57.4945mm" height="10.1784mm" version="1.1" style="shape-rendering:geometricPrecision; text-rendering:geometricPrecision; image-rendering:optimizeQuality; fill-rule:evenodd; clip-rule:evenodd"
viewBox="0 0 5749.46 1017.84"
 xmlns:xlink="http://www.w3.org/1999/xlink">
 <defs>
  <style type="text/css">
   <![CDATA[
    .fil2 {fill:#848688}
    .fil3 {fill:#373435}
    .fil1 {fill:#DC6137}
    .fil0 {fill:#3C4151}
   ]]>
  </style>
 </defs>
 <g id="Camada_x0020_1">
  <metadata id="CorelCorpID_0Corel-Layer"/>
  <g id="_2543871083728">
   <polygon class="fil0" points="1022.82,124.33 1884.83,124.33 1884.83,281.81 1022.82,281.81 "/>
   <polygon class="fil0" points="1357.68,371.32 1548.31,371.32 1548.31,893.51 1357.68,893.51 "/>
   <path class="fil1" d="M1964.41 125.97l0 543.73c0,155.84 127.64,222.14 290.1,222.14l359.72 0c258.61,0 278.5,-145.88 278.5,-296.74l0 -470.77 -270.21 0 164.12 298.39 -177.38 319.92 -356.41 0 -175.72 -319.92 165.78 -296.75 -278.5 0z"/>
   <path class="fil1" d="M2995.52 125.97l0 543.73c0,155.84 127.65,222.14 290.11,222.14l359.72 0c258.6,0 278.5,-145.88 278.5,-296.74l0 -470.77 -270.22 0 164.12 298.39 -177.38 319.92 -356.4 0 -175.72 -319.92 165.77 -296.75 -278.5 0z"/>
   <polygon class="fil0" points="4034.91,124.33 4034.91,891.84 4716.24,891.84 4716.24,739.33 4222.24,739.33 4222.24,124.33 "/>
   <path class="fil0" d="M4819.02 674.68l192.3 0c0,0 0,64.65 96.15,64.65l326.57 0c61.34,0 117.7,-9.94 117.7,-77.91 0,-67.97 -29.84,-82.89 -116.04,-86.2 -86.2,-3.31 -344.81,-9.95 -417.75,-16.59 -72.94,-6.62 -145.88,-14.91 -170.75,-69.61 -24.87,-54.7 -28.18,-116.04 -28.18,-116.04l217.16 0c0,0 -4.97,36.48 67.97,39.79 72.94,3.31 334.86,11.6 422.72,18.24 87.86,6.62 190.64,13.25 212.19,125.97 21.55,112.72 4.97,179.03 -8.29,218.82 -13.26,39.78 -53.05,111.07 -207.21,114.39 -154.17,3.32 -382.94,1.65 -454.22,1.65 -71.28,0 -157.49,-14.92 -200.59,-58.01 -54.7,-54.72 -49.73,-159.15 -49.73,-159.15z"/>
   <path class="fil0" d="M5744.51 280.14c-5.8,-32.38 -18.3,-70.79 -44.89,-97.38 -43.1,-43.11 -129.3,-58.02 -200.58,-58.02 -71.28,0 -300.05,-1.67 -454.22,1.66 -154.17,3.31 -193.96,74.6 -207.22,114.37 -3.66,10.99 -7.6,23.98 -10.84,39.37l917.75 0z"/>
   <path class="fil0" d="M332.79 27.89l123.99 260.41c0,0 58.08,-41.31 89.78,-85.16 31.7,-43.93 61.61,-100.16 61.61,-100.16l91.45 98.77 -117.63 166.19 127.1 -158.59 120.25 62.65c0,0 -55.32,52.09 -81.92,92.84 -26.59,40.67 -50.77,99.87 -50.77,99.87l293.01 37.43c-3.52,-277.94 -223.72,-502.14 -494.82,-502.14 -56.71,0 -111.28,9.8 -162.05,27.89z"/>
   <path class="fil2" d="M169.43 892.32l155 -244.31c0,0 -64.93,-28.32 -118.39,-32.45 -53.46,-4.08 -116.45,-0.15 -116.45,-0.15l36.05 -131.49 201.14 13.61 -199.62 -25.77 -9.39 -137.19c0,0 72.59,20.18 120.74,21.57 48.07,1.45 110.58,-9.06 110.58,-9.06l-118.11 -268.76c-138.84,90.13 -230.98,249.28 -230.98,430.58 0,152.94 65.62,290.11 169.43,383.42z"/>
   <path class="fil3" d="M979.92 610.09l-278.02 -13.67c0,0 6.36,69.97 28.19,118.18 21.89,48.29 55.32,100.79 55.32,100.79l-131.65 33.36 -83.99 -180.63 72.66 185.25 -115 75.36c0,0 -17.06,-72.59 -38.74,-114.93 -21.69,-42.27 -60.65,-91.18 -60.65,-91.18l-175.03 230.42c71.49,41.24 154.03,64.8 241.83,64.8 239.6,0 439.43,-175.17 485.08,-407.75z"/>
   <path class="fil1" d="M358.76 508.9c0,70.11 53.53,127.72 122.19,134.63l0 -269.3c-68.66,6.97 -122.19,64.58 -122.19,134.67zm150.02 134.63l0 0c68.59,-6.91 122.12,-64.52 122.12,-134.63 0,-70.09 -53.53,-127.7 -122.12,-134.67l0 269.3z"/>
  </g>
 </g>
</svg>
