<?xml version="1.0" standalone="no"?>
<!-- Generator: Adobe Fireworks 10, Export SVG Extension by Aaron Beall (http://fireworks.abeall.com) . Version: 0.6.1  -->
<!DOCTYPE svg PUBLIC "-//W3C//DTD SVG 1.1//EN" "http://www.w3.org/Graphics/SVG/1.1/DTD/svg11.dtd">
<svg id="layout_tuuls.fw-home" viewBox="0 0 2000 7632" style="background-color:#ffffff" version="1.1"
	xmlns="http://www.w3.org/2000/svg" xmlns:xlink="http://www.w3.org/1999/xlink" xml:space="preserve"
	x="0px" y="0px" width="2000px" height="7632px"
>
	<path d="M 525.7532 1245.2656 C 524.0532 1246.4098 463.141 1286.4485 460.8208 1288.0803 C 458.5007 1289.7115 458.2714 1290.4004 458.1454 1292.7292 C 458.0751 1294.0267 458.0282 1296.8726 458.0005 1299.1392 C 457.9784 1300.9404 458.6984 1301.8888 460.5251 1300.7576 C 462.3519 1299.6263 471.2099 1294.0859 471.2099 1294.0859 L 471.2179 1305.2277 L 482.3398 1305.2277 L 482.2821 1287.1843 C 482.2821 1287.1843 524.7284 1258.9906 526.7933 1257.5957 C 528.8582 1256.201 532.0405 1256.1202 534.421 1257.6552 C 536.8014 1259.1899 581.1927 1288.7681 581.1927 1288.7681 C 581.1927 1288.7681 581.0913 1303.5885 581.079 1304.6815 C 581.0668 1305.7744 581.9329 1306.7617 583.233 1306.7418 C 584.5328 1306.722 589.4615 1306.8066 590.3085 1306.8018 C 591.5374 1306.795 592.2745 1306.3578 592.3392 1304.8268 C 592.4039 1303.2959 592.3745 1295.4913 592.3745 1295.4913 C 592.3745 1295.4913 599.6021 1300.0826 600.7327 1300.8507 C 601.8635 1301.619 602.926 1300.8389 602.9236 1299.0675 C 602.9203 1296.4467 602.9183 1293.0565 602.9289 1292.3604 C 602.9466 1291.194 602.6191 1289.5763 600.9054 1288.4532 C 599.1917 1287.3303 592.3317 1282.7131 592.3317 1282.7131 C 592.3317 1282.7131 592.3315 1273.9163 592.3315 1272.8225 C 592.3315 1271.7291 591.5421 1269.8872 590.422 1269.2056 C 588.1198 1267.8053 584.4203 1265.5585 583.304 1264.9031 C 581.6444 1263.9286 581.2419 1264.2931 581.1543 1266.2614 C 581.0668 1268.2297 581.1543 1275.8785 581.1543 1275.8785 C 581.1543 1275.8785 536.6204 1246.3804 534.5628 1245.047 C 532.5054 1243.7133 528.3528 1243.516 525.7532 1245.2656 Z" fill="#f37021"/>
	<path d="M 469.2242 1330.2729 C 470.2137 1332.0957 470.937 1333.4374 471.3408 1334.7661 L 471.3407 1350.4634 C 471.3407 1358.9279 473.328 1362 480.5492 1362 L 582.4147 1362 C 589.5394 1362 592.0978 1358.8228 592.0978 1351.8245 L 592.0978 1320.6494 C 593.0428 1319.2631 592.3121 1317.9191 596.2731 1317.9191 C 604.9261 1317.9191 606.0643 1326.2773 606.0643 1329.0273 L 608 1329.0273 C 608 1311.1542 594.5126 1309.4089 591.5523 1309.4089 L 581.3061 1309.4089 C 579.8253 1309.4089 580.4529 1313.0281 577.1747 1313.1898 C 575.4824 1313.1376 574.3401 1313.0483 574.1344 1312.1715 L 574.1454 1311.7434 C 574.1344 1310.6591 572.7681 1309.9954 571.1586 1309.9954 L 568.5149 1309.9954 C 566.9054 1309.9954 565.6617 1310.6591 565.6003 1311.7614 L 565.6003 1322.1549 C 565.6003 1323.1493 566.9054 1323.629 568.5149 1323.629 L 571.1586 1323.629 C 572.7541 1323.629 574.1344 1323.441 574.1344 1322.2504 L 574.1344 1321.1385 C 574.1344 1320.5146 576.3008 1320.6646 577.1854 1320.6646 C 579.4781 1320.6646 580.8862 1320.938 581.1524 1322.4767 L 581.1524 1343.2704 C 581.1524 1348.4811 580.4076 1350.6438 575.4824 1350.6438 L 488.0591 1350.7014 C 483.1339 1350.7014 481.5385 1349.2589 481.5385 1344.0482 L 481.6083 1335.5913 C 481.6083 1335.5913 482.3303 1332.8696 484.7398 1330.9073 C 486.1456 1329.7625 486.7432 1328.6986 487.4332 1327.5236 C 487.9814 1326.6758 488.7839 1323.4194 488.8688 1323.0492 C 490.3193 1316.7052 486.7357 1309.7456 486.7357 1309.7456 L 483.92 1320.8468 C 483.92 1320.8468 482.8107 1322.8723 477.3502 1322.0796 C 471.8896 1321.2869 471.2922 1319.2604 471.2922 1319.2604 L 474.0384 1307.0137 C 469.3942 1310.7655 466.3552 1314.1809 465.4047 1318.7318 C 465.2262 1319.5861 465.1928 1320.5314 465.3062 1321.5116 C 465.3062 1321.5116 465.312 1321.615 465.348 1321.8285 C 465.5028 1322.8813 465.8261 1323.9655 466.3171 1325.0093 C 466.8378 1326.3384 468.0303 1328.0753 469.2242 1330.2729 Z" fill="#f37021"/>
	<path d="M 535.4914 1333.1094 C 534.9894 1333.1094 534.5833 1333.5232 534.5833 1334.0328 L 534.5833 1343.342 L 530.4966 1346.3726 L 526.4549 1343.6248 L 526.4549 1338.9619 L 531.1912 1336.9047 C 531.6523 1336.7045 531.867 1336.1615 531.6695 1335.6926 C 531.4726 1335.2236 530.9394 1335.0054 530.4776 1335.2064 L 525.1904 1337.5034 C 524.8557 1337.6483 524.6387 1337.9824 524.6387 1338.3523 L 524.6387 1344.1176 C 524.6387 1344.4263 524.7901 1344.7141 525.0418 1344.8854 L 530.0142 1348.2666 C 530.1672 1348.3704 530.343 1348.4222 530.5191 1348.4222 C 530.7071 1348.4222 530.8945 1348.3632 531.0541 1348.2455 L 536.0258 1344.5576 C 536.2605 1344.384 536.3989 1344.1063 536.3989 1343.8114 L 536.3989 1334.0328 C 536.3994 1333.5232 535.9928 1333.1094 535.4914 1333.1094 ZM 535.9914 1327.0977 C 535.7372 1326.9261 535.4151 1326.8967 535.1343 1327.0187 L 525.1904 1331.3381 C 524.8557 1331.484 524.6387 1331.8179 524.6387 1332.1877 L 524.6387 1335.1559 C 524.6387 1335.4663 524.7918 1335.7551 525.0468 1335.9265 C 525.1974 1336.0275 525.3718 1336.0792 525.5468 1336.0792 C 525.668 1336.0792 525.7892 1336.0546 525.9034 1336.0049 L 535.848 1331.6852 C 536.1825 1331.5396 536.3994 1331.2054 536.3994 1330.8358 L 536.3994 1327.8674 C 536.3994 1327.5581 536.2462 1327.2682 535.9914 1327.0977 ZM 534.5833 1330.2262 L 526.4549 1333.7573 L 526.4549 1332.7974 L 534.5833 1329.2668 L 534.5833 1330.2262 ZM 535.9914 1321.2198 C 535.7372 1321.0485 535.4151 1321.0188 535.1343 1321.141 L 525.1904 1325.4604 C 524.8557 1325.606 524.6387 1325.9402 524.6387 1326.3101 L 524.6387 1329.2783 C 524.6387 1329.5883 524.7918 1329.8774 525.0468 1330.0487 C 525.1974 1330.15 525.3718 1330.2018 525.5468 1330.2018 C 525.668 1330.2018 525.7892 1330.1769 525.9034 1330.1268 L 535.848 1325.8075 C 536.1825 1325.6619 536.3994 1325.3278 536.3994 1324.9578 L 536.3994 1321.9897 C 536.3994 1321.6803 536.2462 1321.3907 535.9914 1321.2198 ZM 534.5833 1324.3483 L 526.4549 1327.879 L 526.4549 1326.9197 L 534.5833 1323.3888 L 534.5833 1324.3483 ZM 544.9104 1307.0492 C 544.7827 1306.6791 544.4393 1306.4305 544.0532 1306.4305 L 532.2878 1306.4305 C 531.7865 1306.4305 531.3798 1306.8442 531.3798 1307.354 L 531.3798 1310.4779 L 529.6584 1310.4779 L 529.6584 1307.354 C 529.6584 1306.8442 529.2517 1306.4305 528.7503 1306.4305 L 516.9849 1306.4305 C 516.599 1306.4305 516.2555 1306.6791 516.1277 1307.0492 C 516.0006 1307.4196 516.1172 1307.8314 516.4186 1308.076 L 524.6387 1314.7402 L 524.6387 1323.0935 C 524.6387 1323.6033 525.0455 1324.0172 525.5468 1324.0172 C 526.0488 1324.0172 526.4549 1323.6033 526.4549 1323.0935 L 526.4549 1314.2953 C 526.4549 1314.0148 526.3289 1313.7488 526.113 1313.5734 L 519.5807 1308.2775 L 527.8423 1308.2775 L 527.8423 1311.4012 C 527.8423 1311.9117 528.2484 1312.3246 528.7503 1312.3246 L 532.2878 1312.3246 C 532.7897 1312.3246 533.1959 1311.9117 533.1959 1311.4012 L 533.1959 1308.2775 L 541.4574 1308.2775 L 534.925 1313.5734 C 534.7092 1313.7488 534.5833 1314.0148 534.5833 1314.2953 L 534.5833 1318.1642 L 529.1069 1320.5428 C 528.6456 1320.7435 528.4317 1321.2858 528.6285 1321.755 C 528.8254 1322.2239 529.3586 1322.442 529.8203 1322.2411 L 535.848 1319.6232 C 536.1825 1319.4775 536.3994 1319.1439 536.3994 1318.7743 L 536.3994 1314.7402 L 544.6196 1308.076 C 544.9211 1307.8314 545.0375 1307.4196 544.9104 1307.0492 Z" fill="#f37021"/>
</svg>